<svg width="1440" height="1024" viewBox="0 0 1440 1024" fill="none" xmlns="http://www.w3.org/2000/svg">
<g clip-path="url(#clip0_53_19)">
<rect width="1440" height="1024" fill="white"/>
<line x1="189.934" y1="668.592" x2="279.934" y2="536.592" stroke="#69D2FF" stroke-width="5"/>
<line x1="278" y1="538.5" x2="406" y2="538.5" stroke="#69D2FF" stroke-width="5"/>
<line x1="468.5" y1="446" x2="468.5" y2="318" stroke="#69D2FF" stroke-width="5"/>
<line x1="1009.88" y1="762.001" x2="1009.88" y2="613.995" stroke="#69D2FF" stroke-width="7"/>
<line x1="87" y1="576" x2="197" y2="576" stroke="#69D2FF" stroke-width="4"/>
<line x1="251" y1="339" x2="365" y2="339" stroke="#69D2FF" stroke-width="4"/>
<line x1="232" y1="454" x2="342" y2="454" stroke="#69D2FF" stroke-width="4"/>
<line x1="162" y1="504.5" x2="272" y2="504.5" stroke="#69D2FF" stroke-width="7"/>
<line x1="-7" y1="412" x2="103" y2="412" stroke="#69D2FF" stroke-width="4"/>
<line x1="403.935" y1="539.187" x2="468.439" y2="444.592" stroke="#69D2FF" stroke-width="5"/>
<line x1="189.934" y1="668.592" x2="279.934" y2="536.592" stroke="#69D2FF" stroke-width="5"/>
<line x1="278" y1="538.5" x2="406" y2="538.5" stroke="#69D2FF" stroke-width="5"/>
<line x1="403.935" y1="539.187" x2="468.439" y2="444.592" stroke="#69D2FF" stroke-width="5"/>
<line x1="227.348" y1="703.873" x2="317.348" y2="571.873" stroke="#69D2FF" stroke-width="4"/>
<line x1="315" y1="572.5" x2="443" y2="572.5" stroke="#69D2FF" stroke-width="7"/>
<line x1="502" y1="478.5" x2="630" y2="478.5" stroke="#69D2FF" stroke-width="5"/>
<line x1="440.108" y1="573.623" x2="504.612" y2="479.028" stroke="#69D2FF" stroke-width="7"/>
<line x1="691.612" y1="572.567" x2="627.108" y2="477.972" stroke="#69D2FF" stroke-width="7"/>
<line x1="426.612" y1="433.567" x2="362.108" y2="338.972" stroke="#69D2FF" stroke-width="7"/>
<line x1="31" y1="303" x2="141" y2="303" stroke="#69D2FF" stroke-width="4"/>
<line x1="234.052" y1="452.887" x2="138.052" y2="302.887" stroke="#69D2FF" stroke-width="7"/>
<line x1="164.612" y1="505.567" x2="100.108" y2="410.972" stroke="#69D2FF" stroke-width="7"/>
<line x1="-25" y1="730.5" x2="103" y2="730.5" stroke="#69D2FF" stroke-width="3"/>
<line x1="101.761" y1="730.75" x2="166.265" y2="636.155" stroke="#69D2FF" stroke-width="3"/>
<line x1="252.261" y1="340.435" x2="187.757" y2="245.84" stroke="#69D2FF" stroke-width="3"/>
<line x1="24.3476" y1="668.468" x2="88.8518" y2="573.873" stroke="#69D2FF" stroke-width="4"/>
<line x1="759.934" y1="710.592" x2="849.934" y2="578.592" stroke="#69D2FF" stroke-width="5"/>
<line x1="848" y1="580.5" x2="976" y2="580.5" stroke="#69D2FF" stroke-width="5"/>
<line x1="1009.5" y1="451" x2="1009.5" y2="323" stroke="#69D2FF" stroke-width="5"/>
<line x1="657" y1="618" x2="767" y2="618" stroke="#69D2FF" stroke-width="4"/>
<line x1="837" y1="542.5" x2="947" y2="542.5" stroke="#69D2FF" stroke-width="7"/>
<line x1="899" y1="328.974" x2="901" y2="482.974" stroke="#69D2FF" stroke-width="4"/>
<line x1="733" y1="542.5" x2="843" y2="542.5" stroke="#69D2FF" stroke-width="7"/>
<line x1="563" y1="449" x2="673" y2="449" stroke="#69D2FF" stroke-width="4"/>
<line x1="975.166" y1="582.039" x2="1094.7" y2="406.739" stroke="#69D2FF" stroke-width="5"/>
<line x1="759.934" y1="710.592" x2="849.934" y2="578.592" stroke="#69D2FF" stroke-width="5"/>
<line x1="848" y1="580.5" x2="976" y2="580.5" stroke="#69D2FF" stroke-width="5"/>
<line x1="1259" y1="616" x2="1387" y2="616" stroke="#69D2FF" stroke-width="4"/>
<line x1="753.732" y1="806.832" x2="885.963" y2="612.915" stroke="#69D2FF" stroke-width="4"/>
<line x1="1072" y1="521.5" x2="1200" y2="521.5" stroke="#69D2FF" stroke-width="7"/>
<line x1="680" y1="413" x2="808" y2="413" stroke="#69D2FF" stroke-width="4"/>
<line x1="1010.11" y1="615.623" x2="1074.61" y2="521.028" stroke="#69D2FF" stroke-width="7"/>
<line x1="1008.93" y1="325.187" x2="1073.44" y2="230.592" stroke="#69D2FF" stroke-width="5"/>
<line x1="666.47" y1="330.057" x2="664.502" y2="209.056" stroke="#69D2FF" stroke-width="7"/>
<line x1="1261.61" y1="615.567" x2="1197.11" y2="520.972" stroke="#69D2FF" stroke-width="7"/>
<line x1="734.612" y1="542.567" x2="670.108" y2="447.972" stroke="#69D2FF" stroke-width="7"/>
<line x1="502" y1="412.5" x2="612" y2="412.5" stroke="#69D2FF" stroke-width="5"/>
<path d="M609.5 413.544L667.5 327.051" stroke="#69D2FF" stroke-width="7"/>
<path d="M663.5 212.49L721.5 125.996" stroke="#69D2FF" stroke-width="7"/>
<line x1="962.469" y1="237.025" x2="960.5" y2="116.024" stroke="#69D2FF" stroke-width="3"/>
<path d="M960.99 117.5L902.997 31.0018" stroke="#69D2FF" stroke-width="3"/>
<line x1="310" y1="703.5" x2="507" y2="703.5" stroke="#69D2FF" stroke-width="3"/>
<line x1="505.761" y1="703.75" x2="570.265" y2="609.155" stroke="#69D2FF" stroke-width="3"/>
<line x1="1225" y1="112.5" x2="1310" y2="112.5" stroke="#69D2FF" stroke-width="7"/>
<line x1="1309.38" y1="115.225" x2="1353.48" y2="50.5534" stroke="#69D2FF" stroke-width="5"/>
<path d="M1385 617.595L1449.5 523" stroke="#69D2FF" stroke-width="3"/>
<line x1="723.023" y1="865.5" x2="942.023" y2="867.5" stroke="#69D2FF" stroke-width="5"/>
<line x1="936.703" y1="866.026" x2="1010.12" y2="760.007" stroke="#69D2FF" stroke-width="7"/>
<line x1="944.935" y1="544.187" x2="1009.44" y2="449.592" stroke="#69D2FF" stroke-width="5"/>
<line x1="897.761" y1="330.75" x2="962.265" y2="236.155" stroke="#69D2FF" stroke-width="3"/>
<line x1="536.691" y1="796.429" x2="659.508" y2="616.318" stroke="#69D2FF" stroke-width="4"/>
<path d="M194.5 237C194.5 242.711 189.665 247.5 183.5 247.5C177.335 247.5 172.5 242.711 172.5 237C172.5 231.289 177.335 226.5 183.5 226.5C189.665 226.5 194.5 231.289 194.5 237Z" stroke="#69D2FF" stroke-width="5"/>
<path d="M441.5 442C441.5 447.711 436.665 452.5 430.5 452.5C424.335 452.5 419.5 447.711 419.5 442C419.5 436.289 424.335 431.5 430.5 431.5C436.665 431.5 441.5 436.289 441.5 442Z" stroke="#69D2FF" stroke-width="5"/>
<path d="M1092.5 221C1092.5 226.711 1087.66 231.5 1081.5 231.5C1075.34 231.5 1070.5 226.711 1070.5 221C1070.5 215.289 1075.34 210.5 1081.5 210.5C1087.66 210.5 1092.5 215.289 1092.5 221Z" stroke="#69D2FF" stroke-width="5"/>
<path d="M1110.5 397C1110.5 402.711 1105.66 407.5 1099.5 407.5C1093.34 407.5 1088.5 402.711 1088.5 397C1088.5 391.289 1093.34 386.5 1099.5 386.5C1105.66 386.5 1110.5 391.289 1110.5 397Z" stroke="#69D2FF" stroke-width="5"/>
<path d="M721.5 868C721.5 873.711 716.665 878.5 710.5 878.5C704.335 878.5 699.5 873.711 699.5 868C699.5 862.289 704.335 857.5 710.5 857.5C716.665 857.5 721.5 862.289 721.5 868Z" stroke="#69D2FF" stroke-width="5"/>
<path d="M218.5 575C218.5 580.711 213.665 585.5 207.5 585.5C201.335 585.5 196.5 580.711 196.5 575C196.5 569.289 201.335 564.5 207.5 564.5C213.665 564.5 218.5 569.289 218.5 575Z" stroke="#69D2FF" stroke-width="5"/>
<path d="M293.5 508C293.5 513.711 288.665 518.5 282.5 518.5C276.335 518.5 271.5 513.711 271.5 508C271.5 502.289 276.335 497.5 282.5 497.5C288.665 497.5 293.5 502.289 293.5 508Z" stroke="#69D2FF" stroke-width="5"/>
<path d="M366.5 456C366.5 461.711 361.665 466.5 355.5 466.5C349.335 466.5 344.5 461.711 344.5 456C344.5 450.289 349.335 445.5 355.5 445.5C361.665 445.5 366.5 450.289 366.5 456Z" stroke="#69D2FF" stroke-width="5"/>
<path d="M542.5 804C542.5 809.711 537.665 814.5 531.5 814.5C525.335 814.5 520.5 809.711 520.5 804C520.5 798.289 525.335 793.5 531.5 793.5C537.665 793.5 542.5 798.289 542.5 804Z" stroke="#69D2FF" stroke-width="5"/>
<path d="M791.5 617C791.5 622.711 786.665 627.5 780.5 627.5C774.335 627.5 769.5 622.711 769.5 617C769.5 611.289 774.335 606.5 780.5 606.5C786.665 606.5 791.5 611.289 791.5 617Z" stroke="#69D2FF" stroke-width="5"/>
<path d="M764.5 718C764.5 723.711 759.665 728.5 753.5 728.5C747.335 728.5 742.5 723.711 742.5 718C742.5 712.289 747.335 707.5 753.5 707.5C759.665 707.5 764.5 712.289 764.5 718Z" stroke="#69D2FF" stroke-width="5"/>
<path d="M709.5 580C709.5 585.711 704.665 590.5 698.5 590.5C692.335 590.5 687.5 585.711 687.5 580C687.5 574.289 692.335 569.5 698.5 569.5C704.665 569.5 709.5 574.289 709.5 580Z" stroke="#69D2FF" stroke-width="5"/>
<path d="M504.5 413C504.5 418.711 499.665 423.5 493.5 423.5C487.335 423.5 482.5 418.711 482.5 413C482.5 407.289 487.335 402.5 493.5 402.5C499.665 402.5 504.5 407.289 504.5 413Z" stroke="#69D2FF" stroke-width="5"/>
<path d="M441.5 442C441.5 447.711 436.665 452.5 430.5 452.5C424.335 452.5 419.5 447.711 419.5 442C419.5 436.289 424.335 431.5 430.5 431.5C436.665 431.5 441.5 436.289 441.5 442Z" stroke="#69D2FF" stroke-width="5"/>
<path d="M181.5 627C181.5 632.711 176.665 637.5 170.5 637.5C164.335 637.5 159.5 632.711 159.5 627C159.5 621.289 164.335 616.5 170.5 616.5C176.665 616.5 181.5 621.289 181.5 627Z" stroke="#69D2FF" stroke-width="5"/>
<path d="M194.5 678C194.5 683.711 189.665 688.5 183.5 688.5C177.335 688.5 172.5 683.711 172.5 678C172.5 672.289 177.335 667.5 183.5 667.5C189.665 667.5 194.5 672.289 194.5 678Z" stroke="#69D2FF" stroke-width="5"/>
<path d="M481.5 305C481.5 310.711 476.665 315.5 470.5 315.5C464.335 315.5 459.5 310.711 459.5 305C459.5 299.289 464.335 294.5 470.5 294.5C476.665 294.5 481.5 299.289 481.5 305Z" stroke="#69D2FF" stroke-width="5"/>
<line x1="859.5" y1="1092" x2="859.5" y2="964" stroke="#69D2FF" stroke-width="5"/>
<line x1="642" y1="985" x2="756" y2="985" stroke="#69D2FF" stroke-width="4"/>
<line x1="817.612" y1="1079.57" x2="753.108" y2="984.972" stroke="#69D2FF" stroke-width="7"/>
<line x1="422" y1="949" x2="532" y2="949" stroke="#69D2FF" stroke-width="4"/>
<line x1="625.052" y1="1098.89" x2="529.052" y2="948.887" stroke="#69D2FF" stroke-width="7"/>
<line x1="643.261" y1="986.435" x2="578.757" y2="891.84" stroke="#69D2FF" stroke-width="3"/>
<line x1="1404.5" y1="1103" x2="1404.5" y2="975" stroke="#69D2FF" stroke-width="5"/>
<line x1="1353" y1="883" x2="1353" y2="755" stroke="#69D2FF" stroke-width="4"/>
<line x1="1290" y1="974.974" x2="1292" y2="1128.97" stroke="#69D2FF" stroke-width="4"/>
<line x1="1404.93" y1="976.187" x2="1469.44" y2="881.591" stroke="#69D2FF" stroke-width="5"/>
<line x1="1057.47" y1="976.065" x2="1054.5" y2="817.065" stroke="#69D2FF" stroke-width="7"/>
<line x1="1052.1" y1="817.635" x2="1122.1" y2="714.04" stroke="#69D2FF" stroke-width="7"/>
<path d="M1000.5 1059.54L1058.5 973.051" stroke="#69D2FF" stroke-width="7"/>
<line x1="1288.76" y1="976.75" x2="1353.26" y2="882.155" stroke="#69D2FF" stroke-width="3"/>
<path d="M585.5 883C585.5 888.711 580.665 893.5 574.5 893.5C568.335 893.5 563.5 888.711 563.5 883C563.5 877.289 568.335 872.5 574.5 872.5C580.665 872.5 585.5 877.289 585.5 883Z" stroke="#69D2FF" stroke-width="5"/>
<path d="M872.5 951C872.5 956.711 867.665 961.5 861.5 961.5C855.335 961.5 850.5 956.711 850.5 951C850.5 945.289 855.335 940.5 861.5 940.5C867.665 940.5 872.5 945.289 872.5 951Z" stroke="#69D2FF" stroke-width="5"/>
<path d="M234.5 712C234.5 717.711 229.665 722.5 223.5 722.5C217.335 722.5 212.5 717.711 212.5 712C212.5 706.289 217.335 701.5 223.5 701.5C229.665 701.5 234.5 706.289 234.5 712Z" stroke="#69D2FF" stroke-width="5"/>
<path d="M587.5 601C587.5 606.711 582.665 611.5 576.5 611.5C570.335 611.5 565.5 606.711 565.5 601C565.5 595.289 570.335 590.5 576.5 590.5C582.665 590.5 587.5 595.289 587.5 601Z" stroke="#69D2FF" stroke-width="5"/>
<path d="M307.5 704C307.5 709.711 302.665 714.5 296.5 714.5C290.335 714.5 285.5 709.711 285.5 704C285.5 698.289 290.335 693.5 296.5 693.5C302.665 693.5 307.5 698.289 307.5 704Z" stroke="#69D2FF" stroke-width="5"/>
<path d="M441.5 442C441.5 447.711 436.665 452.5 430.5 452.5C424.335 452.5 419.5 447.711 419.5 442C419.5 436.289 424.335 431.5 430.5 431.5C436.665 431.5 441.5 436.289 441.5 442Z" stroke="#69D2FF" stroke-width="5"/>
<path d="M441.5 442C441.5 447.711 436.665 452.5 430.5 452.5C424.335 452.5 419.5 447.711 419.5 442C419.5 436.289 424.335 431.5 430.5 431.5C436.665 431.5 441.5 436.289 441.5 442Z" stroke="#69D2FF" stroke-width="5"/>
<path d="M682.5 413C682.5 418.711 677.665 423.5 671.5 423.5C665.335 423.5 660.5 418.711 660.5 413C660.5 407.289 665.335 402.5 671.5 402.5C677.665 402.5 682.5 407.289 682.5 413Z" stroke="#69D2FF" stroke-width="5"/>
<path d="M831.5 415C831.5 420.711 826.665 425.5 820.5 425.5C814.335 425.5 809.5 420.711 809.5 415C809.5 409.289 814.335 404.5 820.5 404.5C826.665 404.5 831.5 409.289 831.5 415Z" stroke="#69D2FF" stroke-width="5"/>
<line x1="720" y1="127" x2="848" y2="127" stroke="#69D2FF" stroke-width="4"/>
<path d="M871.5 129C871.5 134.711 866.665 139.5 860.5 139.5C854.335 139.5 849.5 134.711 849.5 129C849.5 123.289 854.335 118.5 860.5 118.5C866.665 118.5 871.5 123.289 871.5 129Z" stroke="#69D2FF" stroke-width="5"/>
<path d="M913.5 493C913.5 498.711 908.665 503.5 902.5 503.5C896.335 503.5 891.5 498.711 891.5 493C891.5 487.289 896.335 482.5 902.5 482.5C908.665 482.5 913.5 487.289 913.5 493Z" stroke="#69D2FF" stroke-width="5"/>
<path d="M907.5 23C907.5 28.7109 902.665 33.5 896.5 33.5C890.335 33.5 885.5 28.7109 885.5 23C885.5 17.2891 890.335 12.5 896.5 12.5C902.665 12.5 907.5 17.2891 907.5 23Z" stroke="#69D2FF" stroke-width="5"/>
<line x1="155.5" y1="1037" x2="155.5" y2="909" stroke="#69D2FF" stroke-width="5"/>
<line x1="93" y1="964" x2="93" y2="836" stroke="#69D2FF" stroke-width="4"/>
<line x1="117.166" y1="1162.04" x2="236.703" y2="986.739" stroke="#69D2FF" stroke-width="5"/>
<line x1="155.935" y1="910.187" x2="220.439" y2="815.591" stroke="#69D2FF" stroke-width="5"/>
<path d="M238.5 807C238.5 812.711 233.665 817.5 227.5 817.5C221.335 817.5 216.5 812.711 216.5 807C216.5 801.289 221.335 796.5 227.5 796.5C233.665 796.5 238.5 801.289 238.5 807Z" stroke="#69D2FF" stroke-width="5"/>
<path d="M104.5 823C104.5 828.711 99.6649 833.5 93.5 833.5C87.3351 833.5 82.5 828.711 82.5 823C82.5 817.289 87.3351 812.5 93.5 812.5C99.6649 812.5 104.5 817.289 104.5 823Z" stroke="#69D2FF" stroke-width="5"/>
<path d="M420.5 951C420.5 956.711 415.665 961.5 409.5 961.5C403.335 961.5 398.5 956.711 398.5 951C398.5 945.289 403.335 940.5 409.5 940.5C415.665 940.5 420.5 945.289 420.5 951Z" stroke="#69D2FF" stroke-width="5"/>
<path d="M1140.5 705C1140.5 710.711 1135.66 715.5 1129.5 715.5C1123.34 715.5 1118.5 710.711 1118.5 705C1118.5 699.289 1123.34 694.5 1129.5 694.5C1135.66 694.5 1140.5 699.289 1140.5 705Z" stroke="#69D2FF" stroke-width="5"/>
<path d="M1365.5 743C1365.5 748.711 1360.66 753.5 1354.5 753.5C1348.34 753.5 1343.5 748.711 1343.5 743C1343.5 737.289 1348.34 732.5 1354.5 732.5C1360.66 732.5 1365.5 737.289 1365.5 743Z" stroke="#69D2FF" stroke-width="5"/>
<path d="M252.5 977C252.5 982.711 247.665 987.5 241.5 987.5C235.335 987.5 230.5 982.711 230.5 977C230.5 971.289 235.335 966.5 241.5 966.5C247.665 966.5 252.5 971.289 252.5 977Z" stroke="#69D2FF" stroke-width="5"/>
<path d="M756.5 817C756.5 822.711 751.665 827.5 745.5 827.5C739.335 827.5 734.5 822.711 734.5 817C734.5 811.289 739.335 806.5 745.5 806.5C751.665 806.5 756.5 811.289 756.5 817Z" stroke="#69D2FF" stroke-width="5"/>
<line x1="1093.73" y1="303.79" x2="1225.96" y2="109.873" stroke="#69D2FF" stroke-width="4"/>
<path d="M1096.5 313.958C1096.5 319.669 1091.66 324.458 1085.5 324.458C1079.34 324.458 1074.5 319.669 1074.5 313.958C1074.5 308.248 1079.34 303.458 1085.5 303.458C1091.66 303.458 1096.5 308.248 1096.5 313.958Z" stroke="#69D2FF" stroke-width="5"/>
<path d="M902.5 606C902.5 611.711 897.665 616.5 891.5 616.5C885.335 616.5 880.5 611.711 880.5 606C880.5 600.289 885.335 595.5 891.5 595.5C897.665 595.5 902.5 600.289 902.5 606Z" stroke="#69D2FF" stroke-width="5"/>
<path d="M32.5 301C32.5 306.711 27.6649 311.5 21.5 311.5C15.3351 311.5 10.5 306.711 10.5 301C10.5 295.289 15.3351 290.5 21.5 290.5C27.6649 290.5 32.5 295.289 32.5 301Z" stroke="#69D2FF" stroke-width="5"/>
<line x1="1387" y1="336" x2="1501" y2="336" stroke="#69D2FF" stroke-width="4"/>
<line x1="1368" y1="446" x2="1482" y2="446" stroke="#69D2FF" stroke-width="4"/>
<line x1="1167" y1="300" x2="1277" y2="300" stroke="#69D2FF" stroke-width="4"/>
<line x1="1370.05" y1="449.887" x2="1274.05" y2="299.887" stroke="#69D2FF" stroke-width="7"/>
<line x1="1388.26" y1="337.435" x2="1323.76" y2="242.84" stroke="#69D2FF" stroke-width="3"/>
<path d="M1330.5 234C1330.5 239.711 1325.66 244.5 1319.5 244.5C1313.34 244.5 1308.5 239.711 1308.5 234C1308.5 228.289 1313.34 223.5 1319.5 223.5C1325.66 223.5 1330.5 228.289 1330.5 234Z" stroke="#69D2FF" stroke-width="5"/>
<path d="M1369.5 42C1369.5 47.7109 1364.66 52.5 1358.5 52.5C1352.34 52.5 1347.5 47.7109 1347.5 42C1347.5 36.2891 1352.34 31.5 1358.5 31.5C1364.66 31.5 1369.5 36.2891 1369.5 42Z" stroke="#69D2FF" stroke-width="5"/>
<line x1="365.004" y1="174.505" x2="479.004" y2="174.505" stroke="#69D2FF" stroke-width="5"/>
<line x1="299" y1="238" x2="511" y2="238" stroke="#69D2FF" stroke-width="4"/>
<line x1="97" y1="88" x2="207" y2="88" stroke="#69D2FF" stroke-width="4"/>
<line x1="300.052" y1="237.887" x2="204.052" y2="87.8867" stroke="#69D2FF" stroke-width="7"/>
<line x1="366.3" y1="176.49" x2="235.796" y2="0.894762" stroke="#69D2FF" stroke-width="3"/>
<line x1="477.761" y1="175.761" x2="542.248" y2="81.1551" stroke="#69D2FF" stroke-width="3"/>
<path d="M560.5 73C560.5 78.7109 555.665 83.5 549.5 83.5C543.335 83.5 538.5 78.7109 538.5 73C538.5 67.2891 543.335 62.5 549.5 62.5C555.665 62.5 560.5 67.2891 560.5 73Z" stroke="#69D2FF" stroke-width="5"/>
<path d="M94.5 88C94.5 93.7109 89.6649 98.5 83.5 98.5C77.3351 98.5 72.5 93.7109 72.5 88C72.5 82.2891 77.3351 77.5 83.5 77.5C89.6649 77.5 94.5 82.2891 94.5 88Z" stroke="#69D2FF" stroke-width="5"/>
<path d="M535.5 240C535.5 245.711 530.665 250.5 524.5 250.5C518.335 250.5 513.5 245.711 513.5 240C513.5 234.289 518.335 229.5 524.5 229.5C530.665 229.5 535.5 234.289 535.5 240Z" stroke="#69D2FF" stroke-width="5"/>
<path d="M1168.5 298C1168.5 303.711 1163.66 308.5 1157.5 308.5C1151.34 308.5 1146.5 303.711 1146.5 298C1146.5 292.289 1151.34 287.5 1157.5 287.5C1163.66 287.5 1168.5 292.289 1168.5 298Z" stroke="#69D2FF" stroke-width="5"/>
<path d="M562.5 448C562.5 453.711 557.665 458.5 551.5 458.5C545.335 458.5 540.5 453.711 540.5 448C540.5 442.289 545.335 437.5 551.5 437.5C557.665 437.5 562.5 442.289 562.5 448Z" stroke="#69D2FF" stroke-width="5"/>
<g filter="url(#filter0_f_53_19)">
<circle cx="550.5" cy="446.5" r="22.5" fill="#69D2FF" fill-opacity="0.85098"/>
</g>
<g filter="url(#filter1_f_53_19)">
<circle cx="550.5" cy="446.5" r="22.5" fill="#94DFFF" fill-opacity="0.85098"/>
</g>
<g filter="url(#filter2_f_53_19)">
<circle cx="550.5" cy="446.5" r="22.5" fill="#A394FF" fill-opacity="0.85098"/>
</g>
<g filter="url(#filter3_f_53_19)">
<circle cx="820.5" cy="410.5" r="22.5" fill="#69D2FF" fill-opacity="0.85098"/>
</g>
<g filter="url(#filter4_f_53_19)">
<circle cx="820.5" cy="410.5" r="22.5" fill="#94DFFF" fill-opacity="0.85098"/>
</g>
<g filter="url(#filter5_f_53_19)">
<circle cx="820.5" cy="410.5" r="22.5" fill="#A394FF" fill-opacity="0.85098"/>
</g>
<g filter="url(#filter6_f_53_19)">
<circle cx="1099.5" cy="395.5" r="22.5" fill="#69D2FF" fill-opacity="0.85098"/>
</g>
<g filter="url(#filter7_f_53_19)">
<circle cx="1099.5" cy="395.5" r="22.5" fill="#94DFFF" fill-opacity="0.85098"/>
</g>
<g filter="url(#filter8_f_53_19)">
<circle cx="1099.5" cy="395.5" r="22.5" fill="#A394FF" fill-opacity="0.85098"/>
</g>
<g filter="url(#filter9_f_53_19)">
<circle cx="530.5" cy="804.5" r="22.5" fill="#69D2FF" fill-opacity="0.85098"/>
</g>
<g filter="url(#filter10_f_53_19)">
<circle cx="530.5" cy="804.5" r="22.5" fill="#94DFFF" fill-opacity="0.85098"/>
</g>
<g filter="url(#filter11_f_53_19)">
<circle cx="530.5" cy="804.5" r="22.5" fill="#A394FF" fill-opacity="0.85098"/>
</g>
<g filter="url(#filter12_f_53_19)">
<circle cx="856.5" cy="129.5" r="22.5" fill="#69D2FF" fill-opacity="0.85098"/>
</g>
<g filter="url(#filter13_f_53_19)">
<circle cx="856.5" cy="129.5" r="22.5" fill="#94DFFF" fill-opacity="0.85098"/>
</g>
<g filter="url(#filter14_f_53_19)">
<circle cx="856.5" cy="129.5" r="22.5" fill="#A394FF" fill-opacity="0.85098"/>
</g>
<g filter="url(#filter15_f_53_19)">
<circle cx="355.5" cy="455.5" r="22.5" fill="#69D2FF" fill-opacity="0.85098"/>
</g>
<g filter="url(#filter16_f_53_19)">
<circle cx="355.5" cy="455.5" r="22.5" fill="#94DFFF" fill-opacity="0.85098"/>
</g>
<g filter="url(#filter17_f_53_19)">
<circle cx="355.5" cy="455.5" r="22.5" fill="#A394FF" fill-opacity="0.85098"/>
</g>
<g filter="url(#filter18_f_53_19)">
<circle cx="223.5" cy="807.5" r="22.5" fill="#69D2FF" fill-opacity="0.85098"/>
</g>
<g filter="url(#filter19_f_53_19)">
<circle cx="223.5" cy="807.5" r="22.5" fill="#94DFFF" fill-opacity="0.85098"/>
</g>
<g filter="url(#filter20_f_53_19)">
<circle cx="223.5" cy="807.5" r="22.5" fill="#A394FF" fill-opacity="0.85098"/>
</g>
<g filter="url(#filter21_f_53_19)">
<circle cx="1319.5" cy="234.5" r="22.5" fill="#69D2FF" fill-opacity="0.85098"/>
</g>
<g filter="url(#filter22_f_53_19)">
<circle cx="1319.5" cy="234.5" r="22.5" fill="#94DFFF" fill-opacity="0.85098"/>
</g>
<g filter="url(#filter23_f_53_19)">
<circle cx="1319.5" cy="234.5" r="22.5" fill="#A394FF" fill-opacity="0.85098"/>
</g>
<g filter="url(#filter24_f_53_19)">
<circle cx="79.5" cy="86.5" r="22.5" fill="#69D2FF" fill-opacity="0.85098"/>
</g>
<g filter="url(#filter25_f_53_19)">
<circle cx="79.5" cy="86.5" r="22.5" fill="#94DFFF" fill-opacity="0.85098"/>
</g>
<g filter="url(#filter26_f_53_19)">
<circle cx="79.5" cy="86.5" r="22.5" fill="#A394FF" fill-opacity="0.85098"/>
</g>
<g filter="url(#filter27_f_53_19)">
<circle cx="739.5" cy="817.5" r="22.5" fill="#69D2FF" fill-opacity="0.85098"/>
</g>
<g filter="url(#filter28_f_53_19)">
<circle cx="739.5" cy="817.5" r="22.5" fill="#94DFFF" fill-opacity="0.85098"/>
</g>
<g filter="url(#filter29_f_53_19)">
<circle cx="739.5" cy="817.5" r="22.5" fill="#A394FF" fill-opacity="0.85098"/>
</g>
<g filter="url(#filter30_f_53_19)">
<circle cx="575.5" cy="881.5" r="22.5" fill="#69D2FF" fill-opacity="0.85098"/>
</g>
<g filter="url(#filter31_f_53_19)">
<circle cx="575.5" cy="881.5" r="22.5" fill="#94DFFF" fill-opacity="0.85098"/>
</g>
<g filter="url(#filter32_f_53_19)">
<circle cx="575.5" cy="881.5" r="22.5" fill="#A394FF" fill-opacity="0.85098"/>
</g>
<g filter="url(#filter33_f_53_19)">
<circle cx="527.5" cy="240.5" r="22.5" fill="#69D2FF" fill-opacity="0.85098"/>
</g>
<g filter="url(#filter34_f_53_19)">
<circle cx="527.5" cy="240.5" r="22.5" fill="#94DFFF" fill-opacity="0.85098"/>
</g>
<g filter="url(#filter35_f_53_19)">
<circle cx="527.5" cy="240.5" r="22.5" fill="#A394FF" fill-opacity="0.85098"/>
</g>
<g filter="url(#filter36_f_53_19)">
<circle cx="1354.5" cy="743.5" r="22.5" fill="#69D2FF" fill-opacity="0.85098"/>
</g>
<g filter="url(#filter37_f_53_19)">
<circle cx="1354.5" cy="743.5" r="22.5" fill="#94DFFF" fill-opacity="0.85098"/>
</g>
<g filter="url(#filter38_f_53_19)">
<circle cx="1354.5" cy="743.5" r="22.5" fill="#A394FF" fill-opacity="0.85098"/>
</g>
<g filter="url(#filter39_f_53_19)">
<ellipse cx="1107" cy="340" rx="207" ry="186" fill="#D9D9D9"/>
</g>
<g filter="url(#filter40_f_53_19)">
<ellipse cx="237" cy="618" rx="207" ry="186" fill="#D9D9D9"/>
</g>
<g filter="url(#filter41_f_53_19)">
<ellipse cx="967" cy="842" rx="207" ry="186" fill="#D9D9D9"/>
</g>
<g filter="url(#filter42_f_53_19)">
<ellipse cx="489" cy="144" rx="207" ry="186" fill="#D9D9D9"/>
</g>
<line x1="-103" y1="669.5" x2="25" y2="669.5" stroke="#69D2FF" stroke-width="3"/>
</g>
<defs>
<filter id="filter0_f_53_19" x="507" y="403" width="87" height="87" filterUnits="userSpaceOnUse" color-interpolation-filters="sRGB">
<feFlood flood-opacity="0" result="BackgroundImageFix"/>
<feBlend mode="normal" in="SourceGraphic" in2="BackgroundImageFix" result="shape"/>
<feGaussianBlur stdDeviation="10.5" result="effect1_foregroundBlur_53_19"/>
</filter>
<filter id="filter1_f_53_19" x="507" y="403" width="87" height="87" filterUnits="userSpaceOnUse" color-interpolation-filters="sRGB">
<feFlood flood-opacity="0" result="BackgroundImageFix"/>
<feBlend mode="normal" in="SourceGraphic" in2="BackgroundImageFix" result="shape"/>
<feGaussianBlur stdDeviation="10.5" result="effect1_foregroundBlur_53_19"/>
</filter>
<filter id="filter2_f_53_19" x="507" y="403" width="87" height="87" filterUnits="userSpaceOnUse" color-interpolation-filters="sRGB">
<feFlood flood-opacity="0" result="BackgroundImageFix"/>
<feBlend mode="normal" in="SourceGraphic" in2="BackgroundImageFix" result="shape"/>
<feGaussianBlur stdDeviation="10.5" result="effect1_foregroundBlur_53_19"/>
</filter>
<filter id="filter3_f_53_19" x="777" y="367" width="87" height="87" filterUnits="userSpaceOnUse" color-interpolation-filters="sRGB">
<feFlood flood-opacity="0" result="BackgroundImageFix"/>
<feBlend mode="normal" in="SourceGraphic" in2="BackgroundImageFix" result="shape"/>
<feGaussianBlur stdDeviation="10.5" result="effect1_foregroundBlur_53_19"/>
</filter>
<filter id="filter4_f_53_19" x="777" y="367" width="87" height="87" filterUnits="userSpaceOnUse" color-interpolation-filters="sRGB">
<feFlood flood-opacity="0" result="BackgroundImageFix"/>
<feBlend mode="normal" in="SourceGraphic" in2="BackgroundImageFix" result="shape"/>
<feGaussianBlur stdDeviation="10.5" result="effect1_foregroundBlur_53_19"/>
</filter>
<filter id="filter5_f_53_19" x="777" y="367" width="87" height="87" filterUnits="userSpaceOnUse" color-interpolation-filters="sRGB">
<feFlood flood-opacity="0" result="BackgroundImageFix"/>
<feBlend mode="normal" in="SourceGraphic" in2="BackgroundImageFix" result="shape"/>
<feGaussianBlur stdDeviation="10.5" result="effect1_foregroundBlur_53_19"/>
</filter>
<filter id="filter6_f_53_19" x="1056" y="352" width="87" height="87" filterUnits="userSpaceOnUse" color-interpolation-filters="sRGB">
<feFlood flood-opacity="0" result="BackgroundImageFix"/>
<feBlend mode="normal" in="SourceGraphic" in2="BackgroundImageFix" result="shape"/>
<feGaussianBlur stdDeviation="10.5" result="effect1_foregroundBlur_53_19"/>
</filter>
<filter id="filter7_f_53_19" x="1056" y="352" width="87" height="87" filterUnits="userSpaceOnUse" color-interpolation-filters="sRGB">
<feFlood flood-opacity="0" result="BackgroundImageFix"/>
<feBlend mode="normal" in="SourceGraphic" in2="BackgroundImageFix" result="shape"/>
<feGaussianBlur stdDeviation="10.5" result="effect1_foregroundBlur_53_19"/>
</filter>
<filter id="filter8_f_53_19" x="1056" y="352" width="87" height="87" filterUnits="userSpaceOnUse" color-interpolation-filters="sRGB">
<feFlood flood-opacity="0" result="BackgroundImageFix"/>
<feBlend mode="normal" in="SourceGraphic" in2="BackgroundImageFix" result="shape"/>
<feGaussianBlur stdDeviation="10.5" result="effect1_foregroundBlur_53_19"/>
</filter>
<filter id="filter9_f_53_19" x="487" y="761" width="87" height="87" filterUnits="userSpaceOnUse" color-interpolation-filters="sRGB">
<feFlood flood-opacity="0" result="BackgroundImageFix"/>
<feBlend mode="normal" in="SourceGraphic" in2="BackgroundImageFix" result="shape"/>
<feGaussianBlur stdDeviation="10.5" result="effect1_foregroundBlur_53_19"/>
</filter>
<filter id="filter10_f_53_19" x="487" y="761" width="87" height="87" filterUnits="userSpaceOnUse" color-interpolation-filters="sRGB">
<feFlood flood-opacity="0" result="BackgroundImageFix"/>
<feBlend mode="normal" in="SourceGraphic" in2="BackgroundImageFix" result="shape"/>
<feGaussianBlur stdDeviation="10.5" result="effect1_foregroundBlur_53_19"/>
</filter>
<filter id="filter11_f_53_19" x="487" y="761" width="87" height="87" filterUnits="userSpaceOnUse" color-interpolation-filters="sRGB">
<feFlood flood-opacity="0" result="BackgroundImageFix"/>
<feBlend mode="normal" in="SourceGraphic" in2="BackgroundImageFix" result="shape"/>
<feGaussianBlur stdDeviation="10.5" result="effect1_foregroundBlur_53_19"/>
</filter>
<filter id="filter12_f_53_19" x="813" y="86" width="87" height="87" filterUnits="userSpaceOnUse" color-interpolation-filters="sRGB">
<feFlood flood-opacity="0" result="BackgroundImageFix"/>
<feBlend mode="normal" in="SourceGraphic" in2="BackgroundImageFix" result="shape"/>
<feGaussianBlur stdDeviation="10.5" result="effect1_foregroundBlur_53_19"/>
</filter>
<filter id="filter13_f_53_19" x="813" y="86" width="87" height="87" filterUnits="userSpaceOnUse" color-interpolation-filters="sRGB">
<feFlood flood-opacity="0" result="BackgroundImageFix"/>
<feBlend mode="normal" in="SourceGraphic" in2="BackgroundImageFix" result="shape"/>
<feGaussianBlur stdDeviation="10.5" result="effect1_foregroundBlur_53_19"/>
</filter>
<filter id="filter14_f_53_19" x="813" y="86" width="87" height="87" filterUnits="userSpaceOnUse" color-interpolation-filters="sRGB">
<feFlood flood-opacity="0" result="BackgroundImageFix"/>
<feBlend mode="normal" in="SourceGraphic" in2="BackgroundImageFix" result="shape"/>
<feGaussianBlur stdDeviation="10.5" result="effect1_foregroundBlur_53_19"/>
</filter>
<filter id="filter15_f_53_19" x="312" y="412" width="87" height="87" filterUnits="userSpaceOnUse" color-interpolation-filters="sRGB">
<feFlood flood-opacity="0" result="BackgroundImageFix"/>
<feBlend mode="normal" in="SourceGraphic" in2="BackgroundImageFix" result="shape"/>
<feGaussianBlur stdDeviation="10.5" result="effect1_foregroundBlur_53_19"/>
</filter>
<filter id="filter16_f_53_19" x="312" y="412" width="87" height="87" filterUnits="userSpaceOnUse" color-interpolation-filters="sRGB">
<feFlood flood-opacity="0" result="BackgroundImageFix"/>
<feBlend mode="normal" in="SourceGraphic" in2="BackgroundImageFix" result="shape"/>
<feGaussianBlur stdDeviation="10.5" result="effect1_foregroundBlur_53_19"/>
</filter>
<filter id="filter17_f_53_19" x="312" y="412" width="87" height="87" filterUnits="userSpaceOnUse" color-interpolation-filters="sRGB">
<feFlood flood-opacity="0" result="BackgroundImageFix"/>
<feBlend mode="normal" in="SourceGraphic" in2="BackgroundImageFix" result="shape"/>
<feGaussianBlur stdDeviation="10.5" result="effect1_foregroundBlur_53_19"/>
</filter>
<filter id="filter18_f_53_19" x="180" y="764" width="87" height="87" filterUnits="userSpaceOnUse" color-interpolation-filters="sRGB">
<feFlood flood-opacity="0" result="BackgroundImageFix"/>
<feBlend mode="normal" in="SourceGraphic" in2="BackgroundImageFix" result="shape"/>
<feGaussianBlur stdDeviation="10.5" result="effect1_foregroundBlur_53_19"/>
</filter>
<filter id="filter19_f_53_19" x="180" y="764" width="87" height="87" filterUnits="userSpaceOnUse" color-interpolation-filters="sRGB">
<feFlood flood-opacity="0" result="BackgroundImageFix"/>
<feBlend mode="normal" in="SourceGraphic" in2="BackgroundImageFix" result="shape"/>
<feGaussianBlur stdDeviation="10.5" result="effect1_foregroundBlur_53_19"/>
</filter>
<filter id="filter20_f_53_19" x="180" y="764" width="87" height="87" filterUnits="userSpaceOnUse" color-interpolation-filters="sRGB">
<feFlood flood-opacity="0" result="BackgroundImageFix"/>
<feBlend mode="normal" in="SourceGraphic" in2="BackgroundImageFix" result="shape"/>
<feGaussianBlur stdDeviation="10.5" result="effect1_foregroundBlur_53_19"/>
</filter>
<filter id="filter21_f_53_19" x="1276" y="191" width="87" height="87" filterUnits="userSpaceOnUse" color-interpolation-filters="sRGB">
<feFlood flood-opacity="0" result="BackgroundImageFix"/>
<feBlend mode="normal" in="SourceGraphic" in2="BackgroundImageFix" result="shape"/>
<feGaussianBlur stdDeviation="10.5" result="effect1_foregroundBlur_53_19"/>
</filter>
<filter id="filter22_f_53_19" x="1276" y="191" width="87" height="87" filterUnits="userSpaceOnUse" color-interpolation-filters="sRGB">
<feFlood flood-opacity="0" result="BackgroundImageFix"/>
<feBlend mode="normal" in="SourceGraphic" in2="BackgroundImageFix" result="shape"/>
<feGaussianBlur stdDeviation="10.5" result="effect1_foregroundBlur_53_19"/>
</filter>
<filter id="filter23_f_53_19" x="1276" y="191" width="87" height="87" filterUnits="userSpaceOnUse" color-interpolation-filters="sRGB">
<feFlood flood-opacity="0" result="BackgroundImageFix"/>
<feBlend mode="normal" in="SourceGraphic" in2="BackgroundImageFix" result="shape"/>
<feGaussianBlur stdDeviation="10.5" result="effect1_foregroundBlur_53_19"/>
</filter>
<filter id="filter24_f_53_19" x="36" y="43" width="87" height="87" filterUnits="userSpaceOnUse" color-interpolation-filters="sRGB">
<feFlood flood-opacity="0" result="BackgroundImageFix"/>
<feBlend mode="normal" in="SourceGraphic" in2="BackgroundImageFix" result="shape"/>
<feGaussianBlur stdDeviation="10.5" result="effect1_foregroundBlur_53_19"/>
</filter>
<filter id="filter25_f_53_19" x="36" y="43" width="87" height="87" filterUnits="userSpaceOnUse" color-interpolation-filters="sRGB">
<feFlood flood-opacity="0" result="BackgroundImageFix"/>
<feBlend mode="normal" in="SourceGraphic" in2="BackgroundImageFix" result="shape"/>
<feGaussianBlur stdDeviation="10.5" result="effect1_foregroundBlur_53_19"/>
</filter>
<filter id="filter26_f_53_19" x="36" y="43" width="87" height="87" filterUnits="userSpaceOnUse" color-interpolation-filters="sRGB">
<feFlood flood-opacity="0" result="BackgroundImageFix"/>
<feBlend mode="normal" in="SourceGraphic" in2="BackgroundImageFix" result="shape"/>
<feGaussianBlur stdDeviation="10.5" result="effect1_foregroundBlur_53_19"/>
</filter>
<filter id="filter27_f_53_19" x="696" y="774" width="87" height="87" filterUnits="userSpaceOnUse" color-interpolation-filters="sRGB">
<feFlood flood-opacity="0" result="BackgroundImageFix"/>
<feBlend mode="normal" in="SourceGraphic" in2="BackgroundImageFix" result="shape"/>
<feGaussianBlur stdDeviation="10.5" result="effect1_foregroundBlur_53_19"/>
</filter>
<filter id="filter28_f_53_19" x="696" y="774" width="87" height="87" filterUnits="userSpaceOnUse" color-interpolation-filters="sRGB">
<feFlood flood-opacity="0" result="BackgroundImageFix"/>
<feBlend mode="normal" in="SourceGraphic" in2="BackgroundImageFix" result="shape"/>
<feGaussianBlur stdDeviation="10.5" result="effect1_foregroundBlur_53_19"/>
</filter>
<filter id="filter29_f_53_19" x="696" y="774" width="87" height="87" filterUnits="userSpaceOnUse" color-interpolation-filters="sRGB">
<feFlood flood-opacity="0" result="BackgroundImageFix"/>
<feBlend mode="normal" in="SourceGraphic" in2="BackgroundImageFix" result="shape"/>
<feGaussianBlur stdDeviation="10.5" result="effect1_foregroundBlur_53_19"/>
</filter>
<filter id="filter30_f_53_19" x="532" y="838" width="87" height="87" filterUnits="userSpaceOnUse" color-interpolation-filters="sRGB">
<feFlood flood-opacity="0" result="BackgroundImageFix"/>
<feBlend mode="normal" in="SourceGraphic" in2="BackgroundImageFix" result="shape"/>
<feGaussianBlur stdDeviation="10.5" result="effect1_foregroundBlur_53_19"/>
</filter>
<filter id="filter31_f_53_19" x="532" y="838" width="87" height="87" filterUnits="userSpaceOnUse" color-interpolation-filters="sRGB">
<feFlood flood-opacity="0" result="BackgroundImageFix"/>
<feBlend mode="normal" in="SourceGraphic" in2="BackgroundImageFix" result="shape"/>
<feGaussianBlur stdDeviation="10.5" result="effect1_foregroundBlur_53_19"/>
</filter>
<filter id="filter32_f_53_19" x="532" y="838" width="87" height="87" filterUnits="userSpaceOnUse" color-interpolation-filters="sRGB">
<feFlood flood-opacity="0" result="BackgroundImageFix"/>
<feBlend mode="normal" in="SourceGraphic" in2="BackgroundImageFix" result="shape"/>
<feGaussianBlur stdDeviation="10.5" result="effect1_foregroundBlur_53_19"/>
</filter>
<filter id="filter33_f_53_19" x="484" y="197" width="87" height="87" filterUnits="userSpaceOnUse" color-interpolation-filters="sRGB">
<feFlood flood-opacity="0" result="BackgroundImageFix"/>
<feBlend mode="normal" in="SourceGraphic" in2="BackgroundImageFix" result="shape"/>
<feGaussianBlur stdDeviation="10.5" result="effect1_foregroundBlur_53_19"/>
</filter>
<filter id="filter34_f_53_19" x="484" y="197" width="87" height="87" filterUnits="userSpaceOnUse" color-interpolation-filters="sRGB">
<feFlood flood-opacity="0" result="BackgroundImageFix"/>
<feBlend mode="normal" in="SourceGraphic" in2="BackgroundImageFix" result="shape"/>
<feGaussianBlur stdDeviation="10.5" result="effect1_foregroundBlur_53_19"/>
</filter>
<filter id="filter35_f_53_19" x="484" y="197" width="87" height="87" filterUnits="userSpaceOnUse" color-interpolation-filters="sRGB">
<feFlood flood-opacity="0" result="BackgroundImageFix"/>
<feBlend mode="normal" in="SourceGraphic" in2="BackgroundImageFix" result="shape"/>
<feGaussianBlur stdDeviation="10.5" result="effect1_foregroundBlur_53_19"/>
</filter>
<filter id="filter36_f_53_19" x="1311" y="700" width="87" height="87" filterUnits="userSpaceOnUse" color-interpolation-filters="sRGB">
<feFlood flood-opacity="0" result="BackgroundImageFix"/>
<feBlend mode="normal" in="SourceGraphic" in2="BackgroundImageFix" result="shape"/>
<feGaussianBlur stdDeviation="10.5" result="effect1_foregroundBlur_53_19"/>
</filter>
<filter id="filter37_f_53_19" x="1311" y="700" width="87" height="87" filterUnits="userSpaceOnUse" color-interpolation-filters="sRGB">
<feFlood flood-opacity="0" result="BackgroundImageFix"/>
<feBlend mode="normal" in="SourceGraphic" in2="BackgroundImageFix" result="shape"/>
<feGaussianBlur stdDeviation="10.5" result="effect1_foregroundBlur_53_19"/>
</filter>
<filter id="filter38_f_53_19" x="1311" y="700" width="87" height="87" filterUnits="userSpaceOnUse" color-interpolation-filters="sRGB">
<feFlood flood-opacity="0" result="BackgroundImageFix"/>
<feBlend mode="normal" in="SourceGraphic" in2="BackgroundImageFix" result="shape"/>
<feGaussianBlur stdDeviation="10.5" result="effect1_foregroundBlur_53_19"/>
</filter>
<filter id="filter39_f_53_19" x="575" y="-171" width="1064" height="1022" filterUnits="userSpaceOnUse" color-interpolation-filters="sRGB">
<feFlood flood-opacity="0" result="BackgroundImageFix"/>
<feBlend mode="normal" in="SourceGraphic" in2="BackgroundImageFix" result="shape"/>
<feGaussianBlur stdDeviation="162.5" result="effect1_foregroundBlur_53_19"/>
</filter>
<filter id="filter40_f_53_19" x="-295" y="107" width="1064" height="1022" filterUnits="userSpaceOnUse" color-interpolation-filters="sRGB">
<feFlood flood-opacity="0" result="BackgroundImageFix"/>
<feBlend mode="normal" in="SourceGraphic" in2="BackgroundImageFix" result="shape"/>
<feGaussianBlur stdDeviation="162.5" result="effect1_foregroundBlur_53_19"/>
</filter>
<filter id="filter41_f_53_19" x="435" y="331" width="1064" height="1022" filterUnits="userSpaceOnUse" color-interpolation-filters="sRGB">
<feFlood flood-opacity="0" result="BackgroundImageFix"/>
<feBlend mode="normal" in="SourceGraphic" in2="BackgroundImageFix" result="shape"/>
<feGaussianBlur stdDeviation="162.5" result="effect1_foregroundBlur_53_19"/>
</filter>
<filter id="filter42_f_53_19" x="-43" y="-367" width="1064" height="1022" filterUnits="userSpaceOnUse" color-interpolation-filters="sRGB">
<feFlood flood-opacity="0" result="BackgroundImageFix"/>
<feBlend mode="normal" in="SourceGraphic" in2="BackgroundImageFix" result="shape"/>
<feGaussianBlur stdDeviation="162.5" result="effect1_foregroundBlur_53_19"/>
</filter>
<clipPath id="clip0_53_19">
<rect width="1440" height="1024" fill="white"/>
</clipPath>
</defs>
</svg>
